<svg version="1.1" xmlns="http://www.w3.org/2000/svg" viewBox="0 0 1190.828125 762.4375" width="1190.828125" height="762.4375">
  <!-- svg-source:excalidraw -->
  
  <defs>
    <style class="style-fonts">
      @font-face {
        font-family: "Virgil";
        src: url("https://excalidraw.com/Virgil.woff2");
      }
      @font-face {
        font-family: "Cascadia";
        src: url("https://excalidraw.com/Cascadia.woff2");
      }
      @font-face {
        font-family: "Assistant";
        src: url("https://excalidraw.com/Assistant-Regular.woff2");
      }
    </style>
    
  </defs>
  <rect x="0" y="0" width="1190.828125" height="762.4375" fill="#ffffff"></rect><g stroke-linecap="round" transform="translate(80.484375 176.890625) rotate(0 122.9453125 259.8203125)"><path d="M32 0 C100.54 -1.03, 173.78 0.11, 213.89 0 M32 0 C95.06 1.94, 158.42 1.02, 213.89 0 M213.89 0 C236.77 0.62, 246.55 12.34, 245.89 32 M213.89 0 C233.76 2.13, 243.78 8.47, 245.89 32 M245.89 32 C245.57 196.1, 245.37 359.95, 245.89 487.64 M245.89 32 C246.92 211.83, 246.95 392.19, 245.89 487.64 M245.89 487.64 C247.44 509.05, 236.11 520.42, 213.89 519.64 M245.89 487.64 C244.04 508.59, 233.02 518.17, 213.89 519.64 M213.89 519.64 C153.91 521.13, 95.7 518.73, 32 519.64 M213.89 519.64 C150.62 520.58, 85.69 520.03, 32 519.64 M32 519.64 C11.25 517.83, -0.65 509.89, 0 487.64 M32 519.64 C8.78 518.4, -0.58 507.77, 0 487.64 M0 487.64 C1.18 306.43, 1.67 125.58, 0 32 M0 487.64 C-0.2 329.22, 0.22 170.72, 0 32 M0 32 C0.88 9.09, 10.23 1.91, 32 0 M0 32 C-2.07 11.83, 11.54 -1.15, 32 0" stroke="#1e1e1e" stroke-width="2" fill="none"></path></g><g stroke-linecap="round" transform="translate(10 10) rotate(0 585.4140625 371.21875)"><path d="M32 0 C404.35 2.02, 776.51 0.61, 1138.83 0 M32 0 C404.08 -2.06, 775.83 -1.78, 1138.83 0 M1138.83 0 C1159.61 -1.31, 1171.99 11.41, 1170.83 32 M1138.83 0 C1159.56 -0.22, 1172.63 10.64, 1170.83 32 M1170.83 32 C1172.06 244.73, 1172.09 457.11, 1170.83 710.44 M1170.83 32 C1170.96 264.72, 1171.64 497.9, 1170.83 710.44 M1170.83 710.44 C1172.44 732.53, 1160.95 743.37, 1138.83 742.44 M1170.83 710.44 C1169.05 731.51, 1159.53 742.45, 1138.83 742.44 M1138.83 742.44 C908.6 742.75, 679.72 743.17, 32 742.44 M1138.83 742.44 C890.4 742.91, 642.02 742.85, 32 742.44 M32 742.44 C11.14 743.83, 1.24 732.89, 0 710.44 M32 742.44 C9.37 743.34, 1.29 733.47, 0 710.44 M0 710.44 C0.58 531.08, 0.43 352.91, 0 32 M0 710.44 C-0.35 505.74, -0.58 301.44, 0 32 M0 32 C-0.65 11.25, 11.75 -1.93, 32 0 M0 32 C-1.21 9.49, 9.45 0.49, 32 0" stroke="#1e1e1e" stroke-width="2" fill="none"></path></g><g stroke-opacity="0" fill-opacity="0" stroke-linecap="round" transform="translate(115.68383841816444 361.41821341816444) rotate(0 58.378661581835615 58.378661581835615)"><path d="M72.07 2.62 C80.75 3.82, 90.39 9.46, 97.31 15.48 C104.22 21.5, 110.36 30.47, 113.57 38.75 C116.78 47.04, 117.93 56.48, 116.58 65.17 C115.23 73.86, 110.6 83.41, 105.46 90.91 C100.33 98.4, 93.71 105.7, 85.79 110.17 C77.87 114.63, 67.09 117.58, 57.94 117.7 C48.78 117.81, 38.92 115.28, 30.84 110.85 C22.77 106.41, 14.57 98.77, 9.49 91.08 C4.4 83.38, 1.39 73.7, 0.31 64.69 C-0.77 55.68, -0.09 45.43, 3.01 37 C6.11 28.57, 12.08 19.85, 18.91 14.1 C25.74 8.34, 33.78 4.25, 44.01 2.48 C54.23 0.7, 73.03 2.34, 80.25 3.46 C87.48 4.57, 87.66 8.29, 87.35 9.18 M59.25 -1.06 C68.04 -2.05, 78.84 0.91, 86.79 5.54 C94.74 10.16, 102.26 19.21, 106.94 26.69 C111.63 34.16, 113.75 41.78, 114.91 50.38 C116.07 58.99, 116.99 69.78, 113.9 78.31 C110.8 86.84, 103.26 95.38, 96.33 101.56 C89.4 107.73, 81.12 113.01, 72.33 115.36 C63.54 117.71, 52.53 118.04, 43.6 115.64 C34.66 113.24, 25.25 106.93, 18.74 100.97 C12.24 95.01, 7.62 88.3, 4.56 79.89 C1.51 71.48, -0.67 59.72, 0.4 50.5 C1.47 41.29, 5.56 31.94, 11.01 24.62 C16.46 17.29, 25.35 10.8, 33.1 6.55 C40.85 2.31, 53.04 0.01, 57.53 -0.87 C62.01 -1.75, 59.8 0.16, 60.01 1.28" stroke="#1e1e1e" stroke-width="1" fill="none"></path></g><g stroke-linecap="round" transform="translate(145.44938394594328 378.7117159262841) rotate(0 29.07051933023172 19.380346220154536)"><path d="M9.69 0 C21.26 1.66, 34.97 1.54, 48.45 0 M9.69 0 C22.35 0.08, 32.81 -1.03, 48.45 0 M48.45 0 C53.26 0.97, 58.12 2.8, 58.14 9.69 M48.45 0 C57.07 -0.46, 60.18 1.58, 58.14 9.69 M58.14 9.69 C56.44 14.08, 56.32 19.41, 58.14 29.07 M58.14 9.69 C57.57 14.9, 58.78 19.3, 58.14 29.07 M58.14 29.07 C56.43 35.56, 54.56 38.56, 48.45 38.76 M58.14 29.07 C58.83 33.91, 56.3 36.69, 48.45 38.76 M48.45 38.76 C34.26 39.83, 22.2 37.79, 9.69 38.76 M48.45 38.76 C38.63 39.27, 28.93 38.27, 9.69 38.76 M9.69 38.76 C4.46 40.37, -0.1 34.98, 0 29.07 M9.69 38.76 C3.9 38.37, 2.26 35.63, 0 29.07 M0 29.07 C0.25 24.93, 0.14 20.66, 0 9.69 M0 29.07 C-0.59 23.89, -0.79 18.06, 0 9.69 M0 9.69 C1.18 2.25, 2 1.41, 9.69 0 M0 9.69 C-1.52 3.86, 1.43 -2.27, 9.69 0" stroke="#1e1e1e" stroke-width="1" fill="none"></path></g><g stroke-linecap="round" transform="translate(139.90407509157512 421.7866812431082) rotate(0 34.158424908424934 4.675677934232965)"><path d="M2.34 0 C24.05 0.57, 46.82 0.35, 65.98 0 M2.34 0 C24.54 -0.5, 46.81 0.15, 65.98 0 M65.98 0 C67.53 -0.21, 69.26 0.58, 68.32 2.34 M65.98 0 C68.56 -0.83, 68 0.67, 68.32 2.34 M68.32 2.34 C68.08 3.41, 68.15 4.87, 68.32 7.01 M68.32 2.34 C68.36 3.84, 68.2 5.25, 68.32 7.01 M68.32 7.01 C68.14 8.47, 67.84 8.65, 65.98 9.35 M68.32 7.01 C69.01 7.54, 67.75 10.21, 65.98 9.35 M65.98 9.35 C52.36 9.29, 39.75 9.85, 2.34 9.35 M65.98 9.35 C45.84 9.22, 26.41 9.9, 2.34 9.35 M2.34 9.35 C0.73 9.07, 0.29 8.4, 0 7.01 M2.34 9.35 C1.91 9.4, -0.98 7.91, 0 7.01 M0 7.01 C0 5.22, 0.01 3.48, 0 2.34 M0 7.01 C-0.08 5.42, 0.08 3.57, 0 2.34 M0 2.34 C-0.62 1.48, 0.12 0.27, 2.34 0 M0 2.34 C-0.9 -0.36, 0.72 -0.57, 2.34 0" stroke="#1e1e1e" stroke-width="1" fill="none"></path></g><g stroke-linecap="round" transform="translate(190.27188269766793 425.21112142029324) rotate(0 6.120820957724561 1.1798952533570173)"><path d="M0.59 0 C4.96 0.31, 9.56 0.43, 11.65 0 M0.59 0 C3.99 0.18, 7.84 -0.01, 11.65 0 M11.65 0 C12.98 -0.2, 13.13 -0.52, 12.24 0.59 M11.65 0 C11.73 -0.11, 11.67 -0.8, 12.24 0.59 M12.24 0.59 C12.2 0.94, 12.24 1.14, 12.24 1.77 M12.24 0.59 C12.22 1.02, 12.24 1.44, 12.24 1.77 M12.24 1.77 C12.54 1.46, 12.65 1.46, 11.65 2.36 M12.24 1.77 C12.46 3.02, 10.92 1.3, 11.65 2.36 M11.65 2.36 C7.24 2.49, 3.49 2.2, 0.59 2.36 M11.65 2.36 C8 2.55, 3.99 2.25, 0.59 2.36 M0.59 2.36 C0.49 2.19, 0.98 2.2, 0 1.77 M0.59 2.36 C-0.78 1.69, 0.93 2.25, 0 1.77 M0 1.77 C0 1.42, 0.04 1.02, 0 0.59 M0 1.77 C0.02 1.31, -0.01 0.91, 0 0.59 M0 0.59 C-0.66 0.47, -0.59 -0.99, 0.59 0 M0 0.59 C-0.06 -0.38, -0.12 1.13, 0.59 0" stroke="#1e1e1e" stroke-width="1" fill="none"></path></g><g stroke-linecap="round" transform="translate(168.58376157549765 418.07687105115747) rotate(0 6.120820957724561 1.1798952533570173)"><path d="M0.59 0 C5.16 0.44, 9.3 -0.3, 11.65 0 M0.59 0 C2.99 -0.09, 5.66 -0.08, 11.65 0 M11.65 0 C12.93 -0.72, 11.97 0.1, 12.24 0.59 M11.65 0 C11.47 -1, 11.71 -0.87, 12.24 0.59 M12.24 0.59 C12.24 0.85, 12.27 1.22, 12.24 1.77 M12.24 0.59 C12.23 0.99, 12.25 1.37, 12.24 1.77 M12.24 1.77 C12.84 1.26, 12.23 3.11, 11.65 2.36 M12.24 1.77 C11.11 1.1, 12.88 1.47, 11.65 2.36 M11.65 2.36 C8.73 2.23, 5.92 2.15, 0.59 2.36 M11.65 2.36 C8.92 2.33, 6.3 2.36, 0.59 2.36 M0.59 2.36 C1.18 2.4, -0.85 1.58, 0 1.77 M0.59 2.36 C1.13 2.44, 0.01 2.18, 0 1.77 M0 1.77 C0.04 1.39, 0.04 1.03, 0 0.59 M0 1.77 C-0.02 1.34, -0.02 0.88, 0 0.59 M0 0.59 C-0.78 -0.79, 0.14 -0.5, 0.59 0 M0 0.59 C-0.32 1.33, -0.78 0.27, 0.59 0" stroke="#1e1e1e" stroke-width="1" fill="none"></path></g><g stroke-linecap="round" transform="translate(150.4425515946284 383.19594199673975) rotate(0 24.11446288866233 15.125362843360563)"><path d="M7.56 0 C20.18 -1.23, 30.03 -1.94, 40.67 0 M7.56 0 C20.04 -0.13, 31.53 -0.65, 40.67 0 M40.67 0 C45.16 -0.18, 47.23 0.79, 48.23 7.56 M40.67 0 C44.65 -2.13, 47.23 1.09, 48.23 7.56 M48.23 7.56 C49.18 14.1, 48.86 17.87, 48.23 22.69 M48.23 7.56 C48.43 11.59, 48.66 16, 48.23 22.69 M48.23 22.69 C48.6 29.23, 43.74 28.41, 40.67 30.25 M48.23 22.69 C49.89 25.94, 45.03 29.02, 40.67 30.25 M40.67 30.25 C30.77 29.35, 17.96 31.39, 7.56 30.25 M40.67 30.25 C28.36 29.99, 16.46 30.2, 7.56 30.25 M7.56 30.25 C0.82 29.09, 1.62 27.88, 0 22.69 M7.56 30.25 C2.54 30.28, -0.1 27.83, 0 22.69 M0 22.69 C1.02 16.76, 1.12 14.1, 0 7.56 M0 22.69 C-0.41 19.1, -0.5 14.34, 0 7.56 M0 7.56 C-0.1 1.52, 1.97 1.97, 7.56 0 M0 7.56 C-1.96 3.06, 3.32 1.01, 7.56 0" stroke="#1e1e1e" stroke-width="1" fill="none"></path></g><g transform="translate(151.93252563476562 435.88203407371566) rotate(0 22.129974365234375 12.5)"><text x="22.129974365234375" y="17.52" font-family="Virgil, Segoe UI Emoji" font-size="20px" fill="#1e1e1e" text-anchor="middle" style="white-space: pre;" direction="ltr" dominant-baseline="alphabetic">Host</text></g><g stroke-opacity="0" fill-opacity="0" stroke-linecap="round" transform="translate(986.9963384181642 404.34008841816444) rotate(0 58.37866158183556 58.378661581835615)"><path d="M40.85 1.86 C49.06 -1.68, 60.86 -1.82, 69.9 0.1 C78.93 2.01, 88.24 7.45, 95.08 13.34 C101.91 19.22, 107.18 27.29, 110.91 35.41 C114.64 43.52, 117.88 53.12, 117.45 62.01 C117.03 70.9, 113.23 81.18, 108.36 88.76 C103.48 96.34, 96.06 102.87, 88.21 107.5 C80.36 112.14, 70.38 116.04, 61.25 116.58 C52.13 117.11, 41.63 114.42, 33.46 110.73 C25.3 107.05, 17.81 101.48, 12.28 94.45 C6.74 87.41, 1.79 77.59, 0.25 68.52 C-1.28 59.45, 0.1 48.47, 3.07 40.04 C6.04 31.61, 11.25 24.33, 18.05 17.93 C24.85 11.53, 38.99 4.33, 43.86 1.64 C48.73 -1.05, 47.2 0.91, 47.29 1.79 M85.01 4.86 C92.85 8.16, 99.9 17.77, 105.21 25.27 C110.52 32.77, 115.72 40.91, 116.88 49.86 C118.03 58.82, 115.47 70.56, 112.14 78.99 C108.81 87.43, 103.26 94.69, 96.91 100.48 C90.55 106.27, 82.87 111.36, 74.01 113.72 C65.14 116.08, 52.42 116.24, 43.71 114.62 C34.99 112.99, 28.49 109.7, 21.71 103.95 C14.93 98.19, 6.49 88.74, 3.03 80.08 C-0.43 71.42, 0.04 61.21, 0.96 51.99 C1.89 42.77, 3.77 32.46, 8.58 24.76 C13.39 17.06, 21.7 10.06, 29.82 5.8 C37.95 1.53, 48.34 -0.92, 57.35 -0.84 C66.36 -0.77, 79.56 4.96, 83.9 6.25 C88.23 7.54, 83.7 6.03, 83.36 6.91" stroke="#1e1e1e" stroke-width="1" fill="none"></path></g><g stroke-linecap="round"><g transform="translate(1019.2029205782596 474.90886336750486) rotate(0 26.509865540992223 -26.094803568340694)"><path d="M-0.72 -0.81 C8.3 -0.81, 43.49 0.74, 54.13 -0.87 C64.76 -2.47, 63.81 -6.36, 63.08 -10.45 C62.35 -14.54, 51.5 -20.28, 49.77 -25.39 C48.04 -30.5, 54.03 -36.8, 52.7 -41.1 C51.37 -45.41, 46.34 -49.73, 41.79 -51.21 C37.23 -52.7, 29.12 -51.52, 25.38 -50 C21.64 -48.47, 22.02 -42.9, 19.36 -42.06 C16.7 -41.22, 12.01 -45.39, 9.43 -44.98 C6.84 -44.57, 4.92 -42.14, 3.84 -39.62 C2.76 -37.09, 4.51 -31.68, 2.95 -29.83 C1.4 -27.97, -3.12 -30.48, -5.49 -28.48 C-7.85 -26.47, -10.39 -21.76, -11.25 -17.8 C-12.11 -13.84, -12.71 -7.72, -10.65 -4.71 C-8.59 -1.7, -0.61 -0.69, 1.11 0.27 M1.1 1.38 C9.98 1.63, 42.56 2.76, 53.3 0.49 C64.03 -1.78, 66.15 -7.57, 65.51 -12.25 C64.86 -16.93, 51.75 -22.75, 49.46 -27.58 C47.16 -32.4, 53.31 -37.16, 51.75 -41.19 C50.19 -45.22, 44.37 -50.06, 40.08 -51.74 C35.79 -53.43, 29.62 -52.82, 26 -51.29 C22.38 -49.76, 20.9 -43.94, 18.37 -42.56 C15.85 -41.19, 13.15 -43.97, 10.85 -43.03 C8.54 -42.09, 5.91 -39.29, 4.56 -36.93 C3.21 -34.57, 4.65 -30.15, 2.75 -28.88 C0.86 -27.61, -4.47 -31.08, -6.79 -29.33 C-9.11 -27.58, -10.94 -22.54, -11.18 -18.38 C-11.42 -14.22, -9.81 -7.4, -8.22 -4.37 C-6.63 -1.33, -3.1 -0.75, -1.64 -0.15" stroke="#1e1e1e" stroke-width="1" fill="none"></path></g></g><mask></mask><g transform="translate(1003.1688420403293 481.8968230793487) rotate(0 41.32996368408203 12.5)"><text x="41.32996368408203" y="17.52" font-family="Virgil, Segoe UI Emoji" font-size="20px" fill="#1e1e1e" text-anchor="middle" style="white-space: pre;" direction="ltr" dominant-baseline="alphabetic">Internet</text></g><g stroke-opacity="0" fill-opacity="0" stroke-linecap="round" transform="translate(158.66821341816444 215.15258841816444) rotate(0 58.378661581835615 58.378661581835615)"><path d="M47.8 0.95 C56.08 -1.44, 67.79 0.58, 76.53 3.3 C85.27 6.01, 94.1 10.75, 100.24 17.24 C106.38 23.72, 110.66 33.48, 113.37 42.18 C116.08 50.89, 118.03 60.76, 116.48 69.46 C114.93 78.16, 109.85 87.19, 104.07 94.4 C98.29 101.61, 89.99 109, 81.81 112.71 C73.64 116.42, 64.22 117.31, 55.04 116.67 C45.86 116.04, 34.71 113.77, 26.73 108.91 C18.75 104.05, 11.67 95.58, 7.16 87.51 C2.64 79.43, 0.06 69.46, -0.35 60.44 C-0.76 51.43, 0.86 41.6, 4.67 33.42 C8.49 25.23, 14.08 16.74, 22.54 11.32 C30.99 5.9, 48.89 2.66, 55.4 0.9 C61.91 -0.86, 61.68 -0.12, 61.6 0.76 M40.16 1.68 C47.95 -2.02, 59.7 -1.82, 68.89 -0.14 C78.08 1.54, 88.26 5.87, 95.31 11.75 C102.35 17.62, 107.47 26.65, 111.15 35.13 C114.82 43.61, 117.83 53.9, 117.38 62.63 C116.94 71.36, 113.21 80.14, 108.46 87.49 C103.72 94.84, 96.62 102.11, 88.89 106.75 C81.15 111.38, 71.28 114.48, 62.07 115.3 C52.87 116.12, 42.1 115.2, 33.66 111.65 C25.21 108.1, 16.67 101.32, 11.4 94.01 C6.13 86.69, 3.53 76.72, 2.05 67.74 C0.56 58.77, 0.25 48.48, 2.5 40.17 C4.74 31.86, 8.91 23.92, 15.5 17.89 C22.1 11.87, 37.82 6.25, 42.07 4.02 C46.31 1.79, 41.08 3.92, 40.97 4.51" stroke="#1e1e1e" stroke-width="1" fill="none"></path></g><g stroke-linecap="round" transform="translate(188.43375894594328 232.4460909262841) rotate(0 29.07051933023172 19.380346220154536)"><path d="M9.69 0 C23.6 1.99, 34.36 0.31, 48.45 0 M9.69 0 C22 -0.98, 35.48 0.71, 48.45 0 M48.45 0 C54.91 0.18, 57.29 3.22, 58.14 9.69 M48.45 0 C56.9 1.74, 58.28 1.01, 58.14 9.69 M58.14 9.69 C57.13 15.45, 56.59 23.73, 58.14 29.07 M58.14 9.69 C58.78 14.94, 57.51 19.76, 58.14 29.07 M58.14 29.07 C58.74 34.31, 56.28 39.69, 48.45 38.76 M58.14 29.07 C57.13 33.96, 55.2 37.13, 48.45 38.76 M48.45 38.76 C35.22 39.62, 20.83 38.69, 9.69 38.76 M48.45 38.76 C39.17 37.49, 29.3 38.34, 9.69 38.76 M9.69 38.76 C1.7 38.05, 1.4 33.72, 0 29.07 M9.69 38.76 C3.1 37.18, -2.23 36.53, 0 29.07 M0 29.07 C0.72 20.07, -1.08 12.81, 0 9.69 M0 29.07 C-0.28 23.74, 0.1 16.21, 0 9.69 M0 9.69 C1.79 3.23, 4.02 1.12, 9.69 0 M0 9.69 C0.15 3.93, 4.97 0.67, 9.69 0" stroke="#1e1e1e" stroke-width="1" fill="none"></path></g><g stroke-linecap="round" transform="translate(182.88845009157512 275.5210562431082) rotate(0 34.158424908424934 4.6756779342329935)"><path d="M2.34 0 C18.63 -0.2, 36.4 0.19, 65.98 0 M2.34 0 C22.88 0.68, 42.79 0.33, 65.98 0 M65.98 0 C67.11 -0.01, 69.18 1.53, 68.32 2.34 M65.98 0 C67.61 -1.11, 69.31 -0.34, 68.32 2.34 M68.32 2.34 C68.14 3.35, 68.24 4.42, 68.32 7.01 M68.32 2.34 C68.28 3.86, 68.37 5.43, 68.32 7.01 M68.32 7.01 C69 9.03, 67.1 8.67, 65.98 9.35 M68.32 7.01 C68.46 7.76, 68.37 8.93, 65.98 9.35 M65.98 9.35 C49.14 9.52, 30.45 9.59, 2.34 9.35 M65.98 9.35 C52.88 9.05, 40.02 8.89, 2.34 9.35 M2.34 9.35 C1.48 8.45, -0.06 7.88, 0 7.01 M2.34 9.35 C-0.33 9.85, 0.96 9.58, 0 7.01 M0 7.01 C-0.12 5.5, 0.01 4.54, 0 2.34 M0 7.01 C0.03 5.08, 0.11 3.36, 0 2.34 M0 2.34 C0.39 1.34, 0.84 0.3, 2.34 0 M0 2.34 C0.87 1.11, 0.45 0.28, 2.34 0" stroke="#1e1e1e" stroke-width="1" fill="none"></path></g><g stroke-linecap="round" transform="translate(233.25625769766793 278.94549642029324) rotate(0 6.120820957724561 1.1798952533570173)"><path d="M0.59 0 C5.07 0.26, 9.38 -0.15, 11.65 0 M0.59 0 C2.9 -0.02, 5.1 -0.05, 11.65 0 M11.65 0 C12.91 0.75, 12.3 -0.77, 12.24 0.59 M11.65 0 C13.04 -1.12, 11.56 -0.29, 12.24 0.59 M12.24 0.59 C12.22 0.79, 12.26 1.13, 12.24 1.77 M12.24 0.59 C12.25 0.93, 12.26 1.31, 12.24 1.77 M12.24 1.77 C11.8 1.48, 12.17 1.65, 11.65 2.36 M12.24 1.77 C13.07 1.74, 11.75 3.05, 11.65 2.36 M11.65 2.36 C7.46 2.41, 3.4 2.35, 0.59 2.36 M11.65 2.36 C9.11 2.26, 7.18 2.11, 0.59 2.36 M0.59 2.36 C0.14 1.67, -0.97 2.6, 0 1.77 M0.59 2.36 C1.15 3.37, -0.15 2.69, 0 1.77 M0 1.77 C0.01 1.56, 0.06 1.25, 0 0.59 M0 1.77 C0.02 1.34, 0.01 0.92, 0 0.59 M0 0.59 C0.07 0.5, 0.95 0.29, 0.59 0 M0 0.59 C-0.33 0.47, -0.42 -0.4, 0.59 0" stroke="#1e1e1e" stroke-width="1" fill="none"></path></g><g stroke-linecap="round" transform="translate(211.56813657549765 271.81124605115747) rotate(0 6.120820957724561 1.1798952533570173)"><path d="M0.59 0 C4.11 -0.17, 6.92 0.32, 11.65 0 M0.59 0 C4.66 -0.01, 9.2 0.2, 11.65 0 M11.65 0 C12.1 -0.96, 13.11 -0.77, 12.24 0.59 M11.65 0 C11.37 -0.49, 11.21 -0.61, 12.24 0.59 M12.24 0.59 C12.26 0.93, 12.24 1.15, 12.24 1.77 M12.24 0.59 C12.26 0.9, 12.23 1.17, 12.24 1.77 M12.24 1.77 C12.37 1.46, 12.77 1.99, 11.65 2.36 M12.24 1.77 C11.95 2.85, 12.6 3.07, 11.65 2.36 M11.65 2.36 C7.77 2.35, 4.49 2.02, 0.59 2.36 M11.65 2.36 C8.56 2.09, 5.07 2.15, 0.59 2.36 M0.59 2.36 C-0.77 2.79, 0.83 3.04, 0 1.77 M0.59 2.36 C0.04 2.89, -0.93 1.62, 0 1.77 M0 1.77 C0.05 1.49, 0.04 1.25, 0 0.59 M0 1.77 C0.01 1.54, 0 1.29, 0 0.59 M0 0.59 C0.75 0.49, -0.09 0.24, 0.59 0 M0 0.59 C-0.62 -0.2, 1.01 1.06, 0.59 0" stroke="#1e1e1e" stroke-width="1" fill="none"></path></g><g stroke-linecap="round" transform="translate(193.4269265946284 236.93031699673975) rotate(0 24.11446288866233 15.125362843360563)"><path d="M7.56 0 C17.27 1.35, 32.19 0.09, 40.67 0 M7.56 0 C18.66 0.76, 28.08 -0.96, 40.67 0 M40.67 0 C47.44 -1.94, 47.05 1.67, 48.23 7.56 M40.67 0 C43.65 -1.62, 47.11 1.86, 48.23 7.56 M48.23 7.56 C48.28 10.21, 47.58 14.8, 48.23 22.69 M48.23 7.56 C48 10.66, 48.43 14.25, 48.23 22.69 M48.23 22.69 C49.68 26.99, 45.19 31.45, 40.67 30.25 M48.23 22.69 C49.33 29.15, 45.74 28.84, 40.67 30.25 M40.67 30.25 C28.66 28.98, 20.15 28.71, 7.56 30.25 M40.67 30.25 C31.86 29.26, 22.2 30.39, 7.56 30.25 M7.56 30.25 C4.18 32, -0.27 28.65, 0 22.69 M7.56 30.25 C0.66 29.17, -1.67 27.93, 0 22.69 M0 22.69 C0.88 17.26, -1.52 12.35, 0 7.56 M0 22.69 C-0.01 18.38, 0.51 13.83, 0 7.56 M0 7.56 C-0.58 3, 1.45 -0.69, 7.56 0 M0 7.56 C1.64 4.64, 0.64 1.09, 7.56 0" stroke="#1e1e1e" stroke-width="1" fill="none"></path></g><g transform="translate(194.91690063476562 289.61640907371566) rotate(0 22.129974365234375 12.5)"><text x="22.129974365234375" y="17.52" font-family="Virgil, Segoe UI Emoji" font-size="20px" fill="#1e1e1e" text-anchor="middle" style="white-space: pre;" direction="ltr" dominant-baseline="alphabetic">Host</text></g><g stroke-opacity="0" fill-opacity="0" stroke-linecap="round" transform="translate(127.38696341816444 539.0744634181644) rotate(0 58.378661581835615 58.378661581835615)"><path d="M68.88 0.58 C77.39 1.25, 87.79 6.32, 95.06 12.11 C102.33 17.9, 108.97 27.05, 112.49 35.32 C116.01 43.58, 116.89 52.87, 116.18 61.7 C115.47 70.53, 112.76 80.53, 108.21 88.28 C103.66 96.04, 96.73 103.38, 88.89 108.21 C81.05 113.05, 70.24 116.64, 61.17 117.28 C52.1 117.91, 42.63 116.02, 34.46 112.03 C26.29 108.05, 17.73 100.82, 12.14 93.39 C6.56 85.96, 2.52 76.39, 0.96 67.44 C-0.6 58.48, 0.12 48.11, 2.77 39.66 C5.41 31.21, 10.49 22.98, 16.81 16.73 C23.13 10.48, 31.45 4.83, 40.7 2.15 C49.95 -0.54, 66.85 0.55, 72.31 0.62 C77.77 0.68, 73.96 1.35, 73.46 2.52 M82.65 3.76 C90.52 6.29, 97.84 13.46, 103.37 20.96 C108.91 28.46, 113.82 39.71, 115.86 48.75 C117.89 57.78, 118.08 66.67, 115.6 75.18 C113.12 83.68, 107.76 93.09, 100.96 99.78 C94.15 106.47, 83.55 112.55, 74.77 115.33 C65.98 118.12, 56.8 118.24, 48.26 116.46 C39.73 114.69, 30.63 110.12, 23.54 104.69 C16.46 99.25, 9.61 92.16, 5.77 83.85 C1.93 75.54, 0.05 64.19, 0.52 54.83 C0.98 45.48, 4.1 35.25, 8.57 27.73 C13.03 20.21, 19.43 14.51, 27.3 9.7 C35.18 4.9, 46.6 -0.43, 55.82 -1.09 C65.05 -1.75, 78.42 4.77, 82.67 5.75 C86.92 6.72, 82.07 4.2, 81.31 4.75" stroke="#1e1e1e" stroke-width="1" fill="none"></path></g><g stroke-linecap="round" transform="translate(157.15250894594328 556.3679659262841) rotate(0 29.07051933023172 19.380346220154536)"><path d="M9.69 0 C21.82 -0.16, 29.74 -1.08, 48.45 0 M9.69 0 C22.94 -0.7, 34.58 -0.14, 48.45 0 M48.45 0 C53.5 1.45, 57.4 2.72, 58.14 9.69 M48.45 0 C56.29 1.1, 59.56 3.26, 58.14 9.69 M58.14 9.69 C58.12 12.59, 56.93 18.89, 58.14 29.07 M58.14 9.69 C57.2 13.96, 57.41 17.41, 58.14 29.07 M58.14 29.07 C59.01 37.19, 56.66 38.49, 48.45 38.76 M58.14 29.07 C59.2 33.67, 53.83 37.09, 48.45 38.76 M48.45 38.76 C36.25 40.46, 25.06 37.28, 9.69 38.76 M48.45 38.76 C33.91 38.98, 18.54 39.67, 9.69 38.76 M9.69 38.76 C3.81 38.18, 0.48 34.46, 0 29.07 M9.69 38.76 C2.43 40.4, 2.12 33.65, 0 29.07 M0 29.07 C-1.78 20.41, -1.79 13.87, 0 9.69 M0 29.07 C0.97 24.46, 0.43 20.52, 0 9.69 M0 9.69 C0.81 1.43, 3.32 0.65, 9.69 0 M0 9.69 C1.47 2.07, 5 -1.18, 9.69 0" stroke="#1e1e1e" stroke-width="1" fill="none"></path></g><g stroke-linecap="round" transform="translate(151.60720009157512 599.4429312431082) rotate(0 34.158424908424934 4.675677934232965)"><path d="M2.34 0 C23.35 -0.46, 45.64 -0.61, 65.98 0 M2.34 0 C25.43 0.2, 48.86 0.5, 65.98 0 M65.98 0 C67.17 -0.26, 68.92 1.26, 68.32 2.34 M65.98 0 C68.25 0.02, 67.61 0.88, 68.32 2.34 M68.32 2.34 C68.17 3.27, 68.14 4.13, 68.32 7.01 M68.32 2.34 C68.22 3.96, 68.35 5.9, 68.32 7.01 M68.32 7.01 C69.19 8.44, 68 8.54, 65.98 9.35 M68.32 7.01 C67.78 7.74, 67.64 10.35, 65.98 9.35 M65.98 9.35 C41.38 8.65, 17.12 9.57, 2.34 9.35 M65.98 9.35 C44.54 9.75, 22.94 9.23, 2.34 9.35 M2.34 9.35 C1.02 8.82, -0.35 9.28, 0 7.01 M2.34 9.35 C1.84 8.41, 0.54 9.16, 0 7.01 M0 7.01 C-0.18 5.46, -0.19 4.31, 0 2.34 M0 7.01 C0.03 5.98, 0.02 4.93, 0 2.34 M0 2.34 C0.04 1.1, 1.42 -0.5, 2.34 0 M0 2.34 C0.89 0.19, 0.11 0.8, 2.34 0" stroke="#1e1e1e" stroke-width="1" fill="none"></path></g><g stroke-linecap="round" transform="translate(201.97500769766793 602.8673714202932) rotate(0 6.120820957724561 1.1798952533570173)"><path d="M0.59 0 C4.07 -0.31, 7.59 0.28, 11.65 0 M0.59 0 C3.23 0.19, 6.15 -0.08, 11.65 0 M11.65 0 C12.64 0.48, 12.86 0.21, 12.24 0.59 M11.65 0 C11.34 0.1, 11.1 0.17, 12.24 0.59 M12.24 0.59 C12.19 0.82, 12.28 1.03, 12.24 1.77 M12.24 0.59 C12.25 0.96, 12.26 1.28, 12.24 1.77 M12.24 1.77 C12.7 1.35, 11.58 1.63, 11.65 2.36 M12.24 1.77 C12.34 3.16, 13.09 2.23, 11.65 2.36 M11.65 2.36 C8.09 2.31, 3.75 2.62, 0.59 2.36 M11.65 2.36 C8.34 2.32, 4.94 2.25, 0.59 2.36 M0.59 2.36 C-0.15 3.07, 0.92 1.35, 0 1.77 M0.59 2.36 C0.74 2.95, -0.14 1.17, 0 1.77 M0 1.77 C-0.05 1.53, -0.05 1.36, 0 0.59 M0 1.77 C0.01 1.45, 0 1.2, 0 0.59 M0 0.59 C0.64 -0.31, 0.97 -0.51, 0.59 0 M0 0.59 C-0.67 1, -0.87 -0.08, 0.59 0" stroke="#1e1e1e" stroke-width="1" fill="none"></path></g><g stroke-linecap="round" transform="translate(180.28688657549765 595.7331210511575) rotate(0 6.120820957724561 1.1798952533570173)"><path d="M0.59 0 C3.77 0.29, 5.96 -0.34, 11.65 0 M0.59 0 C3.94 -0.11, 7.67 0.09, 11.65 0 M11.65 0 C12.66 0.02, 11.63 0.29, 12.24 0.59 M11.65 0 C10.91 -0.03, 11.22 -0.53, 12.24 0.59 M12.24 0.59 C12.28 0.89, 12.23 1.25, 12.24 1.77 M12.24 0.59 C12.27 0.83, 12.26 1.05, 12.24 1.77 M12.24 1.77 C11.77 1.44, 12.13 3.23, 11.65 2.36 M12.24 1.77 C13.29 2.03, 12.82 2.68, 11.65 2.36 M11.65 2.36 C9.56 2.67, 7.08 2.53, 0.59 2.36 M11.65 2.36 C7.56 2.2, 3.25 2.54, 0.59 2.36 M0.59 2.36 C1.12 1.54, 0.47 2.68, 0 1.77 M0.59 2.36 C0.06 1.37, -1.14 1.16, 0 1.77 M0 1.77 C-0.05 1.58, -0.03 1.3, 0 0.59 M0 1.77 C0 1.47, 0.02 1.14, 0 0.59 M0 0.59 C0.77 -0.31, -0.39 0.7, 0.59 0 M0 0.59 C-1.07 0.12, 1.23 -0.81, 0.59 0" stroke="#1e1e1e" stroke-width="1" fill="none"></path></g><g stroke-linecap="round" transform="translate(162.1456765946284 560.8521919967397) rotate(0 24.11446288866233 15.125362843360563)"><path d="M7.56 0 C14.59 -1.52, 23.63 -1.57, 40.67 0 M7.56 0 C20.49 0.57, 32.83 0.1, 40.67 0 M40.67 0 C44.49 0.18, 46.25 2.48, 48.23 7.56 M40.67 0 C43.66 -1.45, 48.15 0.76, 48.23 7.56 M48.23 7.56 C48.25 10.52, 46.87 16.21, 48.23 22.69 M48.23 7.56 C48.71 12.75, 48.01 18.6, 48.23 22.69 M48.23 22.69 C48.41 29.46, 47.53 30.02, 40.67 30.25 M48.23 22.69 C49.77 28.36, 43.6 32.31, 40.67 30.25 M40.67 30.25 C30.86 31.04, 22.31 31.02, 7.56 30.25 M40.67 30.25 C31.35 30.78, 23.65 29.26, 7.56 30.25 M7.56 30.25 C3.46 31.28, -0.24 26, 0 22.69 M7.56 30.25 C0.23 28.24, -2.07 25.69, 0 22.69 M0 22.69 C-0.68 18.89, -0.44 14.38, 0 7.56 M0 22.69 C0.48 19.13, 0.58 15.95, 0 7.56 M0 7.56 C-1.17 3.91, 0.66 -0.13, 7.56 0 M0 7.56 C2.07 0.91, 2.12 -2.2, 7.56 0" stroke="#1e1e1e" stroke-width="1" fill="none"></path></g><g transform="translate(163.63565063476562 613.5382840737157) rotate(0 22.129974365234375 12.5)"><text x="22.129974365234375" y="17.52" font-family="Virgil, Segoe UI Emoji" font-size="20px" fill="#1e1e1e" text-anchor="middle" style="white-space: pre;" direction="ltr" dominant-baseline="alphabetic">Host</text></g><g transform="translate(139.734375 140.328125) rotate(0 59.719947814941406 12.5)"><text x="0" y="17.52" font-family="Virgil, Segoe UI Emoji" font-size="20px" fill="#1e1e1e" text-anchor="start" style="white-space: pre;" direction="ltr" dominant-baseline="alphabetic">Home VLAN 1</text></g><g stroke-opacity="0" fill-opacity="0" stroke-linecap="round" transform="translate(747.1994634181644 222.07446341816444) rotate(0 58.37866158183567 58.378661581835615)"><path d="M32.99 5.38 C40.56 1.28, 52.1 0.75, 61.13 1.04 C70.16 1.34, 79.42 2.8, 87.15 7.15 C94.88 11.49, 102.75 19.43, 107.53 27.1 C112.31 34.77, 114.98 44.24, 115.84 53.18 C116.69 62.11, 116.15 72.14, 112.66 80.7 C109.17 89.26, 101.94 98.71, 94.91 104.55 C87.88 110.38, 79.27 114.2, 70.49 115.71 C61.71 117.22, 51.07 116.25, 42.24 113.6 C33.41 110.95, 23.96 105.88, 17.51 99.79 C11.06 93.7, 6.28 85.73, 3.55 77.07 C0.82 68.41, -0.38 56.69, 1.14 47.83 C2.66 38.96, 6.92 31.02, 12.67 23.9 C18.43 16.78, 31.26 8.24, 35.66 5.12 C40.05 2, 38.51 4.3, 39.03 5.18 M65.03 -0.82 C73.84 -0.57, 84.41 4.35, 91.69 9.88 C98.98 15.4, 104.32 24.15, 108.74 32.32 C113.15 40.49, 117.85 50.04, 118.2 58.91 C118.54 67.78, 115.17 77.8, 110.8 85.54 C106.44 93.28, 99.58 100.04, 92.01 105.36 C84.43 110.68, 74.16 115.97, 65.34 117.47 C56.52 118.97, 47.54 117.98, 39.11 114.37 C30.67 110.75, 20.91 102.71, 14.71 95.77 C8.51 88.84, 4.15 81.35, 1.9 72.76 C-0.34 64.17, -0.79 52.86, 1.23 44.22 C3.26 35.59, 7.89 27.58, 14.06 20.94 C20.24 14.29, 29.85 7.56, 38.28 4.35 C46.7 1.13, 60.1 1.95, 64.61 1.62 C69.11 1.3, 65.2 1.41, 65.3 2.4" stroke="#1e1e1e" stroke-width="1" fill="none"></path></g><g transform="translate(774.728157043457 305.0257464958697) rotate(0 30.84996795654297 25)"><text x="30.84996795654297" y="17.52" font-family="Virgil, Segoe UI Emoji" font-size="20px" fill="#1e1e1e" text-anchor="middle" style="white-space: pre;" direction="ltr" dominant-baseline="alphabetic">Colo </text><text x="30.84996795654297" y="42.519999999999996" font-family="Virgil, Segoe UI Emoji" font-size="20px" fill="#1e1e1e" text-anchor="middle" style="white-space: pre;" direction="ltr" dominant-baseline="alphabetic">Server</text></g><g stroke-linecap="round" transform="translate(786.9439450015225 230.88050350413027) rotate(0 18.63417999847718 34.78380266382396)"><path d="M0 0 C6.39 0.19, 15.77 2.26, 37.27 0 M0 0 C7.7 -0.6, 15.36 0.91, 37.27 0 M37.27 0 C39.01 14.15, 38.32 26.69, 37.27 69.57 M37.27 0 C37.65 20.45, 36.27 40.98, 37.27 69.57 M37.27 69.57 C21.33 71.6, 8.07 71.42, 0 69.57 M37.27 69.57 C24.97 68.52, 13.25 69.06, 0 69.57 M0 69.57 C0.26 55.71, -0.41 40.54, 0 0 M0 69.57 C0.98 54.42, 0.06 36.52, 0 0" stroke="#1e1e1e" stroke-width="1" fill="none"></path></g><g stroke-linecap="round"><g transform="translate(791.7156878665364 238.57645417008575) rotate(0 14.286204665499099 1.1368683772161603e-13)"><path d="M-0.03 -0.03 C4.89 -0.03, 24.42 -0.41, 29.11 -0.45 M-0.71 -0.52 C4.23 -0.43, 23.98 -0.1, 28.95 0.02" stroke="#1e1e1e" stroke-width="1" fill="none"></path></g></g><mask></mask><g stroke-linecap="round"><g transform="translate(790.8037851677645 244.98025194769411) rotate(0 14.286204665499099 1.1368683772161603e-13)"><path d="M0.54 -0.45 C5.22 -0.48, 23.45 -0.24, 28.08 -0.24 M0.15 0.51 C5 0.56, 24.44 0.43, 29.05 0.34" stroke="#1e1e1e" stroke-width="1" fill="none"></path></g></g><mask></mask><g stroke-linecap="round"><g transform="translate(790.9300210439969 251.38404972530338) rotate(0 14.286204665499099 1.1368683772161603e-13)"><path d="M-0.5 -0.24 C4.13 -0.23, 23.56 -0.53, 28.32 -0.42 M0.25 0.83 C4.74 0.93, 22.95 0.28, 27.75 0.06" stroke="#1e1e1e" stroke-width="1" fill="none"></path></g></g><mask></mask><g stroke-linecap="round"><g transform="translate(790.8444856752267 257.7878475029122) rotate(0 14.286204665499099 1.1368683772161603e-13)"><path d="M-0.26 -0.42 C4.5 -0.31, 23.33 0.35, 28.05 0.41 M0.61 0.55 C5.57 0.53, 24.26 -0.34, 29.01 -0.34" stroke="#1e1e1e" stroke-width="1" fill="none"></path></g></g><mask></mask><g stroke-linecap="round" transform="translate(812.3851946214158 264.7160731989627) rotate(0 3.320581637643386 2.414968463740564)"><path d="M3.08 0.05 C3.77 -0.14, 4.64 -0.15, 5.19 0.1 C5.75 0.34, 6.18 0.93, 6.42 1.49 C6.66 2.06, 6.88 3.02, 6.66 3.48 C6.43 3.94, 5.67 4, 5.05 4.27 C4.43 4.54, 3.7 5.11, 2.94 5.11 C2.17 5.1, 1 4.64, 0.48 4.23 C-0.04 3.82, -0.26 3.19, -0.2 2.67 C-0.14 2.15, 0.33 1.57, 0.85 1.1 C1.37 0.62, 2.61 0.01, 2.91 -0.17 C3.22 -0.35, 2.75 -0.08, 2.7 0 M3.64 0.2 C4.43 0.09, 5.06 0.3, 5.57 0.52 C6.08 0.74, 6.59 0.97, 6.7 1.54 C6.81 2.1, 6.5 3.31, 6.23 3.9 C5.96 4.5, 5.71 5.04, 5.06 5.1 C4.41 5.17, 3.08 4.48, 2.33 4.27 C1.59 4.06, 1 4.21, 0.59 3.84 C0.18 3.47, -0.17 2.5, -0.12 2.03 C-0.08 1.57, 0.29 1.36, 0.87 1.05 C1.46 0.74, 3.04 0.28, 3.38 0.18 C3.72 0.08, 2.94 0.4, 2.92 0.45" stroke="#1e1e1e" stroke-width="1" fill="none"></path></g><g stroke-linecap="round"><g transform="translate(361.546875 435.87861338363757) rotate(0 316.1885051450006 -1.4005950233697035)"><path d="M-0.4 0.89 C105.09 0.46, 527.11 -1.22, 632.6 -1.76 M1.59 0.31 C106.98 -0.5, 526.73 -2.54, 631.77 -3.34" stroke="#2f9e44" stroke-width="2" fill="none"></path></g><g transform="translate(361.546875 435.87861338363757) rotate(0 316.1885051450006 -1.4005950233697035)"><path d="M608.33 5.35 C616.05 3.47, 622.6 1.02, 631.77 -3.34 M608.33 5.35 C615.6 3.23, 623.49 0.49, 631.77 -3.34" stroke="#2f9e44" stroke-width="2" fill="none"></path></g><g transform="translate(361.546875 435.87861338363757) rotate(0 316.1885051450006 -1.4005950233697035)"><path d="M608.23 -11.75 C616.09 -9.03, 622.67 -6.89, 631.77 -3.34 M608.23 -11.75 C615.41 -8.16, 623.33 -5.19, 631.77 -3.34" stroke="#2f9e44" stroke-width="2" fill="none"></path></g></g><mask></mask><g stroke-linecap="round"><g transform="translate(95.75 47.0625) rotate(0 88.9765625 -0.7578125)"><path d="M-0.68 -0.03 C29.08 -0.36, 148.21 -1.63, 178.15 -1.8 M1.17 -1.09 C30.82 -1.26, 147.71 -0.06, 177.3 -0.41" stroke="#2f9e44" stroke-width="4" fill="none"></path></g></g><mask></mask><g transform="translate(130.703125 58.84375) rotate(0 32.90996551513672 12.5)"><text x="0" y="17.52" font-family="Virgil, Segoe UI Emoji" font-size="20px" fill="#2f9e44" text-anchor="start" style="white-space: pre;" direction="ltr" dominant-baseline="alphabetic">Before</text></g><g stroke-linecap="round"><g transform="translate(327.2340253666043 45.66537583693864) rotate(0 88.9765625 -0.7578125)"><path d="M-0.36 0.62 C29.48 0.23, 148.78 -0.96, 178.41 -1.23 M1.65 -0.1 C31.43 -0.36, 148.58 -2.71, 177.7 -3.21" stroke="#1971c2" stroke-width="4" fill="none"></path></g></g><mask></mask><g transform="translate(383.5934003666043 58.72787583693864) rotate(0 26.83997344970703 12.500000000000014)"><text x="0" y="17.52" font-family="Virgil, Segoe UI Emoji" font-size="20px" fill="#1971c2" text-anchor="start" style="white-space: pre;" direction="ltr" dominant-baseline="alphabetic">After</text></g><g stroke-opacity="0" fill-opacity="0" stroke-linecap="round" transform="translate(270.27758841816444 383.52758841816444) rotate(0 58.378661581835615 58.378661581835615)"><path d="M30.95 6.05 C38.15 1.4, 50.36 -0.5, 59.45 -0.49 C68.55 -0.48, 77.6 1.65, 85.52 6.1 C93.45 10.56, 101.7 18.5, 107 26.22 C112.3 33.95, 116.23 43.55, 117.32 52.47 C118.41 61.39, 117.15 71.53, 113.53 79.76 C109.92 87.98, 102.67 95.81, 95.61 101.81 C88.55 107.82, 79.86 113.66, 71.17 115.77 C62.49 117.88, 52.18 116.72, 43.51 114.48 C34.83 112.23, 25.85 108.34, 19.14 102.28 C12.42 96.23, 6.22 86.86, 3.22 78.17 C0.22 69.49, -0.08 58.99, 1.15 50.16 C2.39 41.34, 5.15 32.57, 10.61 25.24 C16.07 17.91, 29.73 9.51, 33.92 6.18 C38.12 2.86, 35.32 4.51, 35.8 5.3 M78.22 3.79 C86.73 5.88, 95.8 11.92, 101.91 18.57 C108.02 25.23, 112.78 34.84, 114.89 43.71 C117 52.58, 116.32 62.83, 114.56 71.78 C112.8 80.74, 110.04 90.88, 104.33 97.45 C98.61 104.02, 88.79 107.94, 80.29 111.2 C71.8 114.46, 62.46 117.63, 53.34 117 C44.22 116.38, 33.04 112.57, 25.59 107.47 C18.15 102.36, 12.94 94.2, 8.67 86.36 C4.4 78.53, 0.19 69.22, -0.02 60.45 C-0.22 51.67, 3.48 42.08, 7.43 33.71 C11.39 25.35, 16.73 15.84, 23.71 10.26 C30.69 4.67, 40.4 1.6, 49.31 0.2 C58.22 -1.2, 72.38 1.35, 77.14 1.85 C81.9 2.36, 77.91 2.13, 77.87 3.23" stroke="none" stroke-width="0" fill="#e9ecef"></path><path d="M78.52 4.05 C87.01 6.29, 96.02 12.72, 102.19 19.38 C108.35 26.03, 113.45 35.05, 115.51 43.98 C117.56 52.9, 116.62 64.1, 114.52 72.94 C112.42 81.78, 108.85 90.3, 102.9 97.02 C96.95 103.74, 87.44 109.86, 78.83 113.24 C70.21 116.63, 60.13 118.6, 51.2 117.32 C42.28 116.04, 32.79 110.75, 25.28 105.59 C17.77 100.43, 10.32 94.2, 6.12 86.34 C1.92 78.48, -0.02 67.6, 0.07 58.42 C0.17 49.23, 2.49 39.22, 6.69 31.23 C10.88 23.24, 17.69 15.71, 25.24 10.48 C32.78 5.25, 42.6 0.99, 51.93 -0.16 C61.27 -1.31, 76.2 2.44, 81.26 3.58 C86.33 4.71, 82.89 5.71, 82.31 6.64 M77.36 2.11 C85.88 4.07, 95.42 11.28, 101.61 18.48 C107.8 25.69, 112.45 36.38, 114.5 45.32 C116.56 54.26, 115.84 63.47, 113.92 72.13 C112 80.8, 108.67 90.52, 102.98 97.31 C97.29 104.1, 88.04 109.74, 79.78 112.86 C71.51 115.98, 62.29 117.26, 53.38 116.04 C44.47 114.81, 34.08 110.54, 26.32 105.51 C18.56 100.48, 11.2 93.54, 6.84 85.85 C2.49 78.16, 0.27 68.29, 0.19 59.36 C0.11 50.43, 2.32 40.22, 6.34 32.27 C10.36 24.31, 16.84 17.14, 24.31 11.63 C31.77 6.13, 42.09 0.55, 51.15 -0.75 C60.21 -2.06, 74.05 3.16, 78.67 3.82 C83.28 4.48, 79.05 2.53, 78.85 3.21" stroke="#1e1e1e" stroke-width="1" fill="none"></path></g><g stroke-linecap="round" transform="translate(310.0220700015225 392.3336285041303) rotate(0 18.63417999847718 34.78380266382396)"><path d="M0.25 0.53 L37.17 0.67 L36.69 70.86 L0.51 67.9" stroke="none" stroke-width="0" fill="#e9ecef"></path><path d="M0 0 C12.81 0.64, 28.02 -0.42, 37.27 0 M0 0 C13.49 1.01, 25.7 -0.07, 37.27 0 M37.27 0 C37.23 21.19, 35.99 47.4, 37.27 69.57 M37.27 0 C37.23 21.42, 37.41 43.37, 37.27 69.57 M37.27 69.57 C29.88 70.45, 18.3 68.04, 0 69.57 M37.27 69.57 C22.68 68.68, 9.6 69.17, 0 69.57 M0 69.57 C-0.22 51.31, 0.19 31.87, 0 0 M0 69.57 C-0.26 47.39, -0.76 26.76, 0 0" stroke="#1e1e1e" stroke-width="1" fill="none"></path></g><g stroke-linecap="round"><g transform="translate(314.7938128665364 400.02957917008575) rotate(0 14.286204665499099 1.1368683772161603e-13)"><path d="M0.15 0.07 C4.91 0.16, 23.72 0.31, 28.43 0.25 M-0.44 -0.37 C4.25 -0.41, 23.2 -0.67, 27.92 -0.59" stroke="#1e1e1e" stroke-width="1" fill="none"></path></g></g><mask></mask><g stroke-linecap="round"><g transform="translate(313.88191016776454 406.4333769476941) rotate(0 14.286204665499099 1.1368683772161603e-13)"><path d="M-0.15 0.25 C4.55 0.19, 23.51 -0.33, 28.35 -0.3 M0.78 -0.1 C5.38 -0.1, 23.15 0.29, 27.8 0.24" stroke="#1e1e1e" stroke-width="1" fill="none"></path></g></g><mask></mask><g stroke-linecap="round"><g transform="translate(314.00814604399693 412.8371747253034) rotate(0 14.286204665499099 1.1368683772161603e-13)"><path d="M-0.22 -0.3 C4.62 -0.27, 24.12 0.42, 28.91 0.44 M0.66 0.73 C5.48 0.6, 24.07 -0.24, 28.65 -0.3" stroke="#1e1e1e" stroke-width="1" fill="none"></path></g></g><mask></mask><g stroke-linecap="round"><g transform="translate(313.9226106752267 419.2409725029122) rotate(0 14.286204665499099 1.1368683772161603e-13)"><path d="M0.34 0.44 C5.13 0.47, 23.81 -0.06, 28.54 -0.15 M-0.15 0.19 C4.59 0.32, 23.33 0.42, 28.1 0.47" stroke="#1e1e1e" stroke-width="1" fill="none"></path></g></g><mask></mask><g stroke-linecap="round" transform="translate(335.46331962141585 426.1691981989627) rotate(0 3.320581637643386 2.4149684637405926)"><path d="M3.95 -0.19 C4.63 -0.13, 4.96 0.26, 5.43 0.64 C5.9 1.02, 6.71 1.62, 6.77 2.1 C6.83 2.59, 6.23 3.08, 5.8 3.55 C5.36 4.02, 4.77 4.72, 4.16 4.92 C3.55 5.11, 2.75 4.99, 2.15 4.73 C1.54 4.48, 0.94 3.94, 0.55 3.4 C0.16 2.86, -0.32 1.97, -0.19 1.5 C-0.06 1.03, 0.67 0.86, 1.31 0.59 C1.95 0.32, 3.25 -0.07, 3.66 -0.12 C4.07 -0.17, 3.78 0.24, 3.77 0.29 M3.96 0.23 C4.73 0.27, 5.63 0.42, 6.02 0.82 C6.42 1.22, 6.34 2.08, 6.34 2.64 C6.35 3.2, 6.4 3.85, 6.03 4.18 C5.66 4.51, 4.79 4.54, 4.12 4.63 C3.44 4.73, 2.59 4.95, 1.99 4.73 C1.39 4.52, 0.83 3.82, 0.53 3.36 C0.23 2.89, 0.07 2.39, 0.19 1.94 C0.3 1.49, 0.55 0.9, 1.2 0.65 C1.86 0.41, 3.73 0.64, 4.14 0.47 C4.55 0.3, 3.71 -0.36, 3.66 -0.36" stroke="none" stroke-width="0" fill="#e9ecef"></path><path d="M3.5 -0.28 C4.15 -0.3, 4.86 0.51, 5.38 0.91 C5.91 1.31, 6.52 1.65, 6.64 2.11 C6.76 2.58, 6.5 3.27, 6.12 3.71 C5.73 4.15, 4.96 4.64, 4.32 4.77 C3.67 4.89, 2.86 4.7, 2.24 4.45 C1.62 4.19, 0.93 3.65, 0.61 3.26 C0.3 2.86, 0.26 2.57, 0.35 2.08 C0.44 1.58, 0.58 0.67, 1.15 0.29 C1.72 -0.1, 3.35 -0.13, 3.77 -0.22 C4.19 -0.3, 3.78 -0.28, 3.68 -0.2 M2.62 0.12 C3.34 0.01, 4.75 0.38, 5.41 0.66 C6.07 0.95, 6.35 1.39, 6.58 1.83 C6.82 2.28, 7.09 2.93, 6.81 3.32 C6.53 3.72, 5.65 3.97, 4.92 4.19 C4.19 4.42, 3.12 4.73, 2.41 4.69 C1.7 4.64, 1.06 4.31, 0.66 3.93 C0.25 3.54, -0.04 2.85, -0.01 2.36 C0.02 1.88, 0.31 1.48, 0.84 1.02 C1.37 0.56, 2.8 -0.26, 3.17 -0.41 C3.55 -0.56, 3.07 0.1, 3.09 0.13" stroke="#1e1e1e" stroke-width="1" fill="none"></path></g><g transform="translate(276.87630462646484 466.4788714958697) rotate(0 51.779945373535156 25)"><text x="51.779945373535156" y="17.52" font-family="Virgil, Segoe UI Emoji" font-size="20px" fill="#1e1e1e" text-anchor="middle" style="white-space: pre;" direction="ltr" dominant-baseline="alphabetic">OPNsense </text><text x="51.779945373535156" y="42.519999999999996" font-family="Virgil, Segoe UI Emoji" font-size="20px" fill="#1e1e1e" text-anchor="middle" style="white-space: pre;" direction="ltr" dominant-baseline="alphabetic">Firewall</text></g><g stroke-opacity="0" fill-opacity="0" stroke-linecap="round" transform="translate(493.8557134181642 207.16821341816444) rotate(0 58.378661581835615 58.378661581835615)"><path d="M59.16 -0.63 C67.58 -1.49, 77.63 2.25, 85.66 6.8 C93.68 11.35, 102.31 18.96, 107.32 26.67 C112.33 34.37, 114.79 44.1, 115.7 53.05 C116.62 62, 115.97 72.28, 112.81 80.38 C109.64 88.49, 103.76 95.93, 96.71 101.68 C89.65 107.43, 79.19 112.68, 70.48 114.88 C61.78 117.08, 53.2 117.18, 44.48 114.9 C35.75 112.61, 24.94 107.23, 18.13 101.17 C11.32 95.1, 6.69 86.82, 3.63 78.5 C0.57 70.19, -1.34 60.18, -0.25 51.26 C0.84 42.35, 4.72 32.56, 10.16 25 C15.6 17.44, 23.69 10.01, 32.39 5.91 C41.1 1.81, 56.96 1.23, 62.39 0.4 C67.81 -0.44, 65.19 0.07, 64.95 0.91 M69.83 0.34 C78.32 0.88, 86.36 6.99, 93.14 12.81 C99.91 18.63, 106.35 27.28, 110.48 35.25 C114.61 43.22, 118.05 51.52, 117.9 60.61 C117.75 69.7, 114.49 81.93, 109.59 89.79 C104.69 97.65, 96.56 103.29, 88.48 107.79 C80.4 112.28, 70.04 116.09, 61.12 116.76 C52.21 117.42, 43.11 115.41, 34.97 111.77 C26.83 108.13, 17.78 102.26, 12.3 94.93 C6.81 87.61, 3.76 76.76, 2.05 67.81 C0.34 58.86, -0.56 49.59, 2.02 41.23 C4.61 32.86, 10.91 23.95, 17.56 17.62 C24.21 11.3, 33.62 6.25, 41.92 3.26 C50.23 0.27, 63.03 -0.34, 67.39 -0.32 C71.74 -0.3, 68.21 2.18, 68.04 3.4" stroke="#1e1e1e" stroke-width="1" fill="none"></path></g><g stroke-linecap="round"><g transform="translate(526.0622955782596 277.73698836750486) rotate(0 26.509865540992337 -26.094803568340694)"><path d="M0.04 0.56 C9.01 0.59, 43.93 1.47, 54.45 -0.67 C64.98 -2.81, 63.88 -8.1, 63.21 -12.26 C62.54 -16.42, 52.23 -20.83, 50.46 -25.63 C48.68 -30.43, 54 -36.67, 52.55 -41.06 C51.09 -45.45, 46.15 -50.54, 41.72 -51.98 C37.29 -53.43, 29.9 -51.25, 25.96 -49.74 C22.03 -48.24, 20.75 -44.02, 18.09 -42.94 C15.44 -41.85, 12.4 -43.77, 10.05 -43.23 C7.7 -42.68, 5.09 -41.93, 4.02 -39.66 C2.94 -37.38, 5.15 -31.41, 3.58 -29.56 C2.02 -27.72, -3.11 -30.35, -5.37 -28.61 C-7.63 -26.86, -9.37 -22.98, -9.97 -19.1 C-10.58 -15.22, -10.59 -8.56, -9.01 -5.33 C-7.42 -2.1, -1.99 -0.62, -0.44 0.28 M-1.4 -0.19 C7.41 0.11, 42.62 2.65, 53.8 0.79 C64.98 -1.07, 66.25 -7.18, 65.7 -11.35 C65.15 -15.53, 52.87 -19.31, 50.51 -24.28 C48.14 -29.24, 53.27 -36.36, 51.52 -41.13 C49.76 -45.9, 44.08 -51.29, 39.98 -52.92 C35.88 -54.54, 30.21 -53.01, 26.9 -50.9 C23.58 -48.79, 22.62 -41.39, 20.11 -40.24 C17.59 -39.09, 14.34 -44.56, 11.79 -44.02 C9.25 -43.47, 6.17 -39.58, 4.82 -36.99 C3.47 -34.4, 5.62 -30.34, 3.71 -28.48 C1.8 -26.63, -4.45 -27.83, -6.61 -25.87 C-8.77 -23.9, -8.77 -20.12, -9.23 -16.7 C-9.69 -13.27, -10.86 -8.07, -9.38 -5.31 C-7.9 -2.55, -2.16 -1.25, -0.34 -0.13" stroke="#1e1e1e" stroke-width="1" fill="none"></path></g></g><mask></mask><g transform="translate(516.0382191765598 285.3968230793487) rotate(0 35.31996154785156 12.5)"><text x="35.31996154785156" y="17.52" font-family="Virgil, Segoe UI Emoji" font-size="20px" fill="#1e1e1e" text-anchor="middle" style="white-space: pre;" direction="ltr" dominant-baseline="alphabetic">Tailnet</text></g><g stroke-linecap="round"><g transform="translate(250.75 316.796875) rotate(0 20.296875 35.265625)"><path d="M-0.4 0.2 C6.27 11.73, 33.68 57.63, 40.49 69.49 M1.58 -0.74 C8.05 10.88, 33.16 58.78, 39.48 70.47" stroke="#2f9e44" stroke-width="4" fill="none"></path></g><g transform="translate(250.75 316.796875) rotate(0 20.296875 35.265625)"><path d="M20.9 53.75 C27.56 59.29, 31.77 64.8, 39.48 70.47 M20.9 53.75 C27.34 59.1, 34.85 65.71, 39.48 70.47" stroke="#2f9e44" stroke-width="4" fill="none"></path></g><g transform="translate(250.75 316.796875) rotate(0 20.296875 35.265625)"><path d="M36 45.72 C37.57 53.92, 36.67 62.15, 39.48 70.47 M36 45.72 C36.9 54.1, 38.86 63.65, 39.48 70.47" stroke="#2f9e44" stroke-width="4" fill="none"></path></g></g><mask></mask><g stroke-linecap="round"><g transform="translate(209.65625 456.09375) rotate(0 31.109375 -10.421875)"><path d="M0.11 0.45 C10.5 -2.92, 53.06 -16.32, 63.33 -19.71 M-1.29 -0.36 C8.96 -4.09, 52.63 -17.68, 62.96 -21.23" stroke="#2f9e44" stroke-width="4" fill="none"></path></g><g transform="translate(209.65625 456.09375) rotate(0 31.109375 -10.421875)"><path d="M43.27 -5.83 C51.42 -9.84, 60.02 -18.37, 62.96 -21.23 M43.27 -5.83 C50.49 -10.98, 57.52 -17.5, 62.96 -21.23" stroke="#2f9e44" stroke-width="4" fill="none"></path></g><g transform="translate(209.65625 456.09375) rotate(0 31.109375 -10.421875)"><path d="M37.97 -22.09 C48.2 -19.94, 58.82 -22.3, 62.96 -21.23 M37.97 -22.09 C47.17 -20.99, 56.22 -21.32, 62.96 -21.23" stroke="#2f9e44" stroke-width="4" fill="none"></path></g></g><mask></mask><g stroke-linecap="round"><g transform="translate(222.671875 584.1120836224115) rotate(0 32.97513156915062 -32.29822931120577)"><path d="M0.53 0.57 C11.52 -9.99, 54.55 -53.58, 65.62 -64.29 M-0.65 -0.18 C10.18 -11.04, 53.27 -55.36, 64.51 -66.25" stroke="#2f9e44" stroke-width="4" fill="none"></path></g><g transform="translate(222.671875 584.1120836224115) rotate(0 32.97513156915062 -32.29822931120577)"><path d="M53.97 -43.58 C57.97 -50.36, 60.42 -54.28, 64.51 -66.25 M53.97 -43.58 C58.23 -52.48, 61.83 -59.81, 64.51 -66.25" stroke="#2f9e44" stroke-width="4" fill="none"></path></g><g transform="translate(222.671875 584.1120836224115) rotate(0 32.97513156915062 -32.29822931120577)"><path d="M41.86 -55.66 C49.08 -59.19, 54.84 -59.8, 64.51 -66.25 M41.86 -55.66 C50.63 -60.12, 58.8 -62.89, 64.51 -66.25" stroke="#2f9e44" stroke-width="4" fill="none"></path></g></g><mask></mask><g stroke-linecap="round"><g transform="translate(194.578125 551.125) rotate(0 35.0625 -31.828125)"><path d="M1.17 0.27 C12.85 -10.32, 58.6 -52.41, 69.94 -63.05 M0.33 -0.63 C11.85 -11.63, 57.01 -54.59, 68.89 -64.86" stroke="#1971c2" stroke-width="2" fill="none"></path></g><g transform="translate(194.578125 551.125) rotate(0 35.0625 -31.828125)"><path d="M57.31 -42.7 C60.99 -49.49, 64.87 -57.11, 68.89 -64.86 M57.31 -42.7 C60.24 -48.73, 65.17 -56.84, 68.89 -64.86" stroke="#1971c2" stroke-width="2" fill="none"></path></g><g transform="translate(194.578125 551.125) rotate(0 35.0625 -31.828125)"><path d="M45.78 -55.33 C52.83 -58.61, 60.02 -62.59, 68.89 -64.86 M45.78 -55.33 C52.09 -57.46, 60.53 -61.73, 68.89 -64.86" stroke="#1971c2" stroke-width="2" fill="none"></path></g></g><mask></mask><g stroke-linecap="round"><g transform="translate(360.3570231083397 381.2434018114325) rotate(0 65.2951233776264 -48.59729518338844)"><path d="M-0.53 -0.97 C21 -17.16, 108.09 -80.36, 130.14 -96.54 M1.39 1.13 C22.65 -15.46, 107.26 -81.94, 128.95 -98.31" stroke="#1971c2" stroke-width="2" fill="none"></path></g><g transform="translate(360.3570231083397 381.2434018114325) rotate(0 65.2951233776264 -48.59729518338844)"><path d="M115.59 -77.19 C118.88 -85.82, 126.63 -91.11, 128.95 -98.31 M115.59 -77.19 C117.96 -82.46, 122.29 -87.55, 128.95 -98.31" stroke="#1971c2" stroke-width="2" fill="none"></path></g><g transform="translate(360.3570231083397 381.2434018114325) rotate(0 65.2951233776264 -48.59729518338844)"><path d="M105.13 -90.72 C112.43 -94.22, 124.1 -94.42, 128.95 -98.31 M105.13 -90.72 C109.84 -92.8, 116.61 -94.74, 128.95 -98.31" stroke="#1971c2" stroke-width="2" fill="none"></path></g></g><mask></mask><g stroke-linecap="round"><g transform="translate(627.8500321979499 261.13089241996875) rotate(0 53.436894433333634 1.8324161089828976)"><path d="M0.66 0.56 C18.48 1.16, 88.85 3.69, 106.55 4.05 M-0.45 -0.19 C17.22 -0.01, 87.67 1.51, 105.43 2.13" stroke="#1971c2" stroke-width="2" fill="none"></path></g><g transform="translate(627.8500321979499 261.13089241996875) rotate(0 53.436894433333634 1.8324161089828976)"><path d="M81.72 10.04 C89 7.24, 95.1 5.68, 105.43 2.13 M81.72 10.04 C87.63 9.16, 93.14 7.5, 105.43 2.13" stroke="#1971c2" stroke-width="2" fill="none"></path></g><g transform="translate(627.8500321979499 261.13089241996875) rotate(0 53.436894433333634 1.8324161089828976)"><path d="M82.18 -7.05 C89.41 -5.25, 95.38 -2.21, 105.43 2.13 M82.18 -7.05 C88.05 -4.17, 93.46 -2.05, 105.43 2.13" stroke="#1971c2" stroke-width="2" fill="none"></path></g></g><mask></mask><g stroke-linecap="round"><g transform="translate(883.6648908919778 282.5975582803675) rotate(0 66.50120871360059 56.43003724312092)"><path d="M-0.99 -0.75 C21.06 18.15, 109.99 94.69, 132.49 113.5 M0.69 1.48 C22.52 20.02, 109.09 93.12, 131.27 111.72" stroke="#1971c2" stroke-width="2" fill="none"></path></g><g transform="translate(883.6648908919778 282.5975582803675) rotate(0 66.50120871360059 56.43003724312092)"><path d="M107.79 103.13 C113.9 105.15, 123.56 110.35, 131.27 111.72 M107.79 103.13 C113.6 106.07, 118.18 108.1, 131.27 111.72" stroke="#1971c2" stroke-width="2" fill="none"></path></g><g transform="translate(883.6648908919778 282.5975582803675) rotate(0 66.50120871360059 56.43003724312092)"><path d="M118.8 90.05 C121.48 96.07, 127.69 105.36, 131.27 111.72 M118.8 90.05 C121.88 95.99, 123.84 101.13, 131.27 111.72" stroke="#1971c2" stroke-width="2" fill="none"></path></g></g><mask></mask></svg>