<svg xmlns="http://www.w3.org/2000/svg" height="800" width="1200" viewBox="-36.07917 -17.25 312.68614 103.5"><path d="M4.5 4.5h20l-20 20v20l40-40h20l-60 60h20l40-40v20l-20 20h20" stroke-linejoin="round" stroke-linecap="round" stroke-width="9" stroke="#008700" fill="none"/><path d="M91.6426 10.4746V48.751c0 1.2868.0545 2.0501.1636 2.29.1526.4362.4907.7525 1.0141.9487.3271.131 1.2104.1963 2.65.1963h1.145V58.5H76.3646v-6.314h1.2432c1.3086 0 2.1483-.0817 2.519-.2453.3708-.1636.6434-.4253.818-.7852.1744-.3598.2616-1.1614.2616-2.4045V19.5693h-4.8418v-6.3466c3.904-.2617 7.9388-1.1777 12.1045-2.748zm18.1894 0c1.6576 0 3.0698.5835 4.2366 1.7503 1.1668 1.1668 1.7502 2.579 1.7503 4.2365 0 1.6794-.5835 3.1025-1.7503 4.2693-1.1668 1.1669-2.579 1.7503-4.2366 1.7503-1.6575 0-3.0697-.5834-4.2365-1.7503-1.1669-1.1668-1.7503-2.579-1.7503-4.2366 0-1.6357.5998-3.0478 1.7993-4.2365 1.1996-1.1886 2.5954-1.783 4.1875-1.783zm5.2998 14.5908v24.1763c0 1.156.0654 1.8648.1963 2.1265.1309.2617.3653.4634.7034.6052.338.1418 1.096.2126 2.2737.2126h1.7666V58.5H99.854v-6.314h1.7339c1.1341 0 1.8593-.06 2.1755-.1799.3163-.12.5507-.3217.7034-.6052.1527-.2835.229-.8506.229-1.7012v-15.605H99.854v-6.1504c1.723-.0872 3.375-.2726 4.9563-.5561 1.5812-.2835 2.9934-.6216 4.2366-1.0142.807-.2617 1.7993-.6979 2.977-1.3086zm21.3955-14.5908V28.108c1.8103-1.134 3.4187-1.9247 4.8255-2.3718 1.4067-.447 2.8189-.6706 4.2366-.6707 3.7076 0 6.7719 1.3523 9.1928 4.0567 2.8135 3.1406 4.2202 7.3281 4.2202 12.5625 0 5.2998-1.4122 9.5582-4.2365 12.7751-2.8244 3.217-6.2431 4.8255-10.2561 4.8255-1.6358 0-3.2061-.2727-4.711-.818-1.5049-.5452-3.0752-1.4503-4.711-2.7152l-1.7665 2.748h-7.1973V19.5693h-4.7763v-6.3466c4.2965-.3053 8.2877-1.2214 11.9736-2.748zm0 24.7324v9.9453c0 2.0066.1582 3.386.4744 4.1385.3162.7524.8724 1.3795 1.6685 1.881.796.5017 1.7284.7525 2.797.7525 1.8103 0 3.2497-.7415 4.3184-2.2246 1.3522-1.8538 2.0283-4.4165 2.0284-7.688 0-3.0752-.578-5.4524-1.734-7.1318-.9378-1.3522-2.17-2.0283-3.6967-2.0283-.8506 0-1.7612.1963-2.7317.5888-.9705.3926-2.012.9815-3.1243 1.7666zm47.273 3.5005v-2.4209c0-1.4394-.12-2.4318-.3599-2.977-.2399-.5453-.6761-.9978-1.3086-1.3577-.6325-.3598-1.4176-.5398-2.3554-.5398-.7198 0-1.374.12-1.963.3599-.5888.24-1.0577.5452-1.4067.916s-.7524 1.0905-1.2104 2.1592c-.5889 1.3522-1.2923 2.3227-2.1101 2.9116-.8179.5889-1.783.8833-2.8953.8833-1.3958 0-2.5408-.4362-3.435-1.3086-.8943-.8724-1.3414-1.952-1.3414-3.2388 0-1.4612.458-2.7589 1.374-3.893 1.2214-1.5049 3.0425-2.7372 5.4634-3.6968 2.421-.9596 5.1472-1.4394 8.1788-1.4395 3.0315 0 5.6105.4908 7.737 1.4722 2.1265.9815 3.6095 2.1538 4.4492 3.5168.8397 1.3632 1.2595 3.4406 1.2596 6.2322v11.712c0 1.4394.0763 2.3609.229 2.7643.1526.4035.4797.758.9814 1.0633.5016.3053 1.0578.458 1.6685.458.6106 0 1.4285-.1745 2.4536-.5235v6.3794c-1.8539.5889-3.6314.8833-5.3325.8833-2.0066 0-3.7187-.3271-5.1363-.9814-1.4176-.6543-2.6063-1.6357-3.5659-2.9443-2.181 1.4176-4.1602 2.4263-5.9377 3.026-1.7776.5999-3.495.8997-5.1526.8997-3.1188 0-5.6379-.8778-7.5571-2.6335-1.9193-1.7557-2.879-3.9203-2.879-6.4939 0-1.4613.3326-2.8026.9978-4.024.6652-1.2213 1.6576-2.29 2.9771-3.206 1.3195-.916 3.3587-1.7284 6.1177-2.4372 2.759-.7088 6.1122-1.216 10.0598-1.5213zm0 5.4307c-2.8571.4144-4.8745.8342-6.0523 1.2595-1.1777.4253-2.0174.9597-2.519 1.603-.5016.6434-.7525 1.3032-.7524 1.9793 0 .8724.3271 1.603.9814 2.1919.6543.5888 1.5376.8833 2.65.8833.7196 0 1.5538-.1854 2.5026-.5562.9487-.3707 2.012-.916 3.1897-1.6357zm39.356-18.2876h17.3715v6.314c-1.4613.0218-2.3119.0654-2.5517.1308-.3708.109-.758.3708-1.1614.7852-.4035.4144-.8125 1.0578-1.2268 1.9301L224.89 58.5h-8.7675l-11.1558-24.209c-.2617-.5452-.5998-1.0141-1.0142-1.4067-.3271-.3053-.687-.5016-1.0795-.5889-.2618-.0872-1.0578-.1308-2.3882-.1308v-6.314h20.0542v6.314h-1.047c-1.2867 0-2.0828.0981-2.3881.2944-.4144.2617-.6216.5998-.6216 1.0141 0 .3272.1418.8398.4253 1.5376l5.0708 12.7261 5.2671-12.726c.3053-.7198.458-1.2541.458-1.603 0-.4363-.229-.7634-.687-.9815-.349-.1745-1.1232-.2617-2.3228-.2617h-1.5376z"/></svg>