<?xml version="1.0" standalone="no"?>
<!DOCTYPE svg PUBLIC "-//W3C//DTD SVG 20010904//EN"
 "http://www.w3.org/TR/2001/REC-SVG-20010904/DTD/svg10.dtd">
<svg version="1.0" xmlns="http://www.w3.org/2000/svg"
 width="700.000000pt" height="700.000000pt" viewBox="0 0 700.000000 700.000000"
 preserveAspectRatio="xMidYMid meet">
<metadata>
Created by potrace 1.14, written by Peter Selinger 2001-2017
</metadata>
<g transform="translate(0.000000,700.000000) scale(0.100000,-0.100000)"
fill="#000000" stroke="none">
<path d="M5653 6319 c-74 -29 -146 -97 -185 -177 l-33 -67 -5 -1137 -5 -1137
-55 36 c-80 51 -263 138 -354 168 -136 44 -263 66 -417 72 -346 14 -654 -74
-944 -270 -123 -83 -322 -284 -404 -407 -195 -294 -281 -615 -260 -975 21
-362 179 -712 439 -975 421 -426 1031 -573 1596 -385 114 38 260 108 345 166
l56 38 16 -58 c22 -79 73 -148 145 -198 180 -123 427 -54 520 145 l27 57 0
2430 0 2430 -33 67 c-40 81 -111 149 -188 177 -73 28 -189 28 -261 0z m-890
-2983 c157 -46 262 -111 377 -233 107 -112 164 -216 207 -374 25 -89 24 -308
-1 -399 -87 -316 -332 -552 -638 -614 -522 -107 -1008 285 -1008 813 0 410
278 746 685 827 104 20 268 12 378 -20z"/>
<path d="M1435 2236 c-136 -31 -244 -94 -338 -197 -284 -306 -190 -805 187
-988 103 -50 169 -65 281 -64 176 1 311 58 441 188 126 125 184 263 184 437 0
105 -13 173 -50 255 -103 228 -307 367 -555 379 -56 2 -113 -2 -150 -10z"/>
</g>
</svg>
