<?xml version="1.0" standalone="no"?>
<!DOCTYPE svg PUBLIC "-//W3C//DTD SVG 20010904//EN"
 "http://www.w3.org/TR/2001/REC-SVG-20010904/DTD/svg10.dtd">
<svg version="1.0" xmlns="http://www.w3.org/2000/svg"
 width="196.000000pt" height="196.000000pt" viewBox="0 0 196.000000 196.000000"
 preserveAspectRatio="xMidYMid meet">
<metadata>
Created by potrace 1.14, written by Peter Selinger 2001-2017
</metadata>
<g transform="translate(0.000000,196.000000) scale(0.100000,-0.100000)"
fill="#000000" stroke="none">
<path d="M397 1488 c-30 -40 -78 -103 -107 -141 l-53 -67 0 -298 -1 -298 73
-95 c40 -52 87 -113 105 -136 17 -23 34 -42 38 -43 4 0 9 176 10 391 l3 392
81 -104 c45 -57 174 -223 288 -369 256 -328 274 -342 428 -309 29 7 72 20 95
30 41 17 43 17 55 0 24 -34 53 -40 177 -40 91 1 120 4 113 12 -5 7 -36 49 -70
93 l-61 82 44 68 c39 60 75 143 91 215 3 13 6 65 6 114 1 260 -184 494 -442
559 -56 14 -543 22 -603 10 -30 -6 -55 -46 -50 -79 2 -12 27 -50 56 -87 29
-36 79 -100 112 -143 33 -43 67 -85 75 -95 8 -10 22 -28 30 -40 8 -12 22 -30
30 -40 19 -23 41 -51 198 -250 102 -130 126 -166 113 -171 -40 -16 -91 36
-301 306 -116 149 -219 281 -228 294 -9 13 -22 28 -27 35 -6 6 -57 71 -114
144 -56 72 -104 132 -106 132 -1 0 -27 -33 -58 -72z m885 -182 c61 -29 138
-99 164 -148 62 -120 61 -264 -4 -365 -14 -22 -15 -21 -73 55 -32 42 -67 88
-78 102 -11 14 -78 101 -150 194 -72 93 -131 176 -131 184 0 12 18 14 108 10
90 -4 116 -9 164 -32z"/>
</g>
</svg>
